<svg width="42" height="58" viewBox="0 0 42 58" fill="none" xmlns="http://www.w3.org/2000/svg">
<g clip-path="url(#clip0_1_226)">
<path d="M34.1251 21.5767H32.2501V12.2017C32.2501 9.21804 31.0648 6.35655 28.955 4.24677C26.8452 2.13699 23.9837 0.951721 21.0001 0.951721C18.0164 0.951721 15.1549 2.13699 13.0451 4.24677C10.9353 6.35655 9.75006 9.21804 9.75006 12.2017V21.5767H7.87506C5.8866 21.5789 3.98021 22.3698 2.57416 23.7758C1.16811 25.1819 0.377232 27.0883 0.375061 29.0767V49.7017C0.377232 51.6902 1.16811 53.5966 2.57416 55.0026C3.98021 56.4087 5.8866 57.1996 7.87506 57.2017H34.1251C36.1135 57.1996 38.0199 56.4087 39.426 55.0026C40.832 53.5966 41.6229 51.6902 41.6251 49.7017V29.0767C41.6229 27.0883 40.832 25.1819 39.426 23.7758C38.0199 22.3698 36.1135 21.5789 34.1251 21.5767ZM28.5001 21.5767H13.5001V12.2017C13.5001 10.2126 14.2902 8.30494 15.6968 6.89842C17.1033 5.4919 19.0109 4.70172 21.0001 4.70172C22.9892 4.70172 24.8968 5.4919 26.3034 6.89842C27.7099 8.30494 28.5001 10.2126 28.5001 12.2017V21.5767Z" fill="#2C79BA"/>
</g>
<defs>
<clipPath id="clip0_1_226">
<rect width="42" height="58" fill="white"/>
</clipPath>
</defs>
</svg>
